<?xml version="1.0" encoding="utf-8" standalone="no"?>
<!DOCTYPE svg PUBLIC "-//W3C//DTD SVG 1.1//EN"
  "http://www.w3.org/Graphics/SVG/1.1/DTD/svg11.dtd">
<svg xmlns:xlink="http://www.w3.org/1999/xlink" width="205.225312pt" height="200.649219pt" viewBox="0 0 205.225312 200.649219" xmlns="http://www.w3.org/2000/svg" version="1.1">
 <metadata>
  <rdf:RDF xmlns:dc="http://purl.org/dc/elements/1.1/" xmlns:cc="http://creativecommons.org/ns#" xmlns:rdf="http://www.w3.org/1999/02/22-rdf-syntax-ns#">
   <cc:Work>
    <dc:type rdf:resource="http://purl.org/dc/dcmitype/StillImage"/>
    <dc:date>2022-09-16T20:22:58.490573</dc:date>
    <dc:format>image/svg+xml</dc:format>
    <dc:creator>
     <cc:Agent>
      <dc:title>Matplotlib v3.5.1, https://matplotlib.org/</dc:title>
     </cc:Agent>
    </dc:creator>
   </cc:Work>
  </rdf:RDF>
 </metadata>
 <defs>
  <style type="text/css">*{stroke-linejoin: round; stroke-linecap: butt}</style>
 </defs>
 <g id="figure_1">
  <g id="patch_1">
   <path d="M 0 200.649219 
L 205.225312 200.649219 
L 205.225312 0 
L 0 0 
z
" style="fill: #ffffff"/>
  </g>
  <g id="axes_1">
   <g id="patch_2">
    <path d="M 36.385312 171.334219 
L 203.785313 171.334219 
L 203.785313 5.014219 
L 36.385312 5.014219 
z
" style="fill: #ffffff"/>
   </g>
   <g id="matplotlib.axis_1">
    <g id="xtick_1">
     <g id="line2d_1">
      <defs>
       <path id="ma379fc2e9d" d="M 0 0 
L 0 3.5 
" style="stroke: #000000; stroke-width: 0.8"/>
      </defs>
      <g>
       <use xlink:href="#ma379fc2e9d" x="36.385312" y="171.334219" style="stroke: #000000; stroke-width: 0.8"/>
      </g>
     </g>
     <g id="text_1">
      <!-- 0 -->
      <g transform="translate(33.885312 185.482656)scale(0.1 -0.1)">
       <defs>
        <path id="SimSun-30" d="M 1600 4225 
Q 1250 4225 1012 3687 
Q 775 3150 775 2250 
Q 775 1300 1012 775 
Q 1250 250 1600 250 
Q 1975 250 2187 775 
Q 2400 1300 2400 2250 
Q 2400 3150 2200 3687 
Q 2000 4225 1600 4225 
z
M 1600 50 
Q 1050 50 675 625 
Q 300 1200 300 2250 
Q 300 3225 662 3825 
Q 1025 4425 1600 4425 
Q 2150 4425 2512 3850 
Q 2875 3275 2875 2250 
Q 2875 1225 2512 637 
Q 2150 50 1600 50 
z
" transform="scale(0.015625)"/>
       </defs>
       <use xlink:href="#SimSun-30"/>
      </g>
     </g>
    </g>
    <g id="xtick_2">
     <g id="line2d_2">
      <g>
       <use xlink:href="#ma379fc2e9d" x="82.885312" y="171.334219" style="stroke: #000000; stroke-width: 0.8"/>
      </g>
     </g>
     <g id="text_2">
      <!-- 5 -->
      <g transform="translate(80.385312 185.482656)scale(0.1 -0.1)">
       <defs>
        <path id="SimSun-35" d="M 1725 2850 
Q 2200 2850 2500 2487 
Q 2800 2125 2800 1525 
Q 2800 850 2487 450 
Q 2175 50 1525 50 
Q 1075 50 725 312 
Q 375 575 375 950 
Q 375 1100 462 1212 
Q 550 1325 700 1325 
Q 850 1325 900 1225 
Q 950 1125 950 1050 
Q 950 900 875 825 
Q 800 725 800 625 
Q 800 425 1037 325 
Q 1275 225 1550 225 
Q 1950 225 2162 550 
Q 2375 875 2375 1475 
Q 2375 1975 2187 2287 
Q 2000 2600 1625 2600 
Q 1350 2600 1150 2500 
Q 950 2400 775 2075 
L 550 2100 
L 675 4375 
L 2725 4375 
L 2650 4000 
L 850 4000 
L 750 2350 
Q 1000 2700 1237 2775 
Q 1475 2850 1725 2850 
z
" transform="scale(0.015625)"/>
       </defs>
       <use xlink:href="#SimSun-35"/>
      </g>
     </g>
    </g>
    <g id="xtick_3">
     <g id="line2d_3">
      <g>
       <use xlink:href="#ma379fc2e9d" x="129.385312" y="171.334219" style="stroke: #000000; stroke-width: 0.8"/>
      </g>
     </g>
     <g id="text_3">
      <!-- 10 -->
      <g transform="translate(124.385312 185.482656)scale(0.1 -0.1)">
       <defs>
        <path id="SimSun-31" d="M 1825 4450 
L 1825 650 
Q 1825 450 1950 350 
Q 2075 250 2300 250 
L 2550 250 
L 2550 100 
L 725 100 
L 725 250 
L 950 250 
Q 1200 250 1312 350 
Q 1425 450 1425 650 
L 1425 3675 
Q 1425 3775 1362 3837 
Q 1300 3900 1175 3900 
L 725 3900 
L 725 4050 
L 950 4050 
Q 1250 4050 1437 4150 
Q 1625 4250 1725 4450 
L 1825 4450 
z
" transform="scale(0.015625)"/>
       </defs>
       <use xlink:href="#SimSun-31"/>
       <use xlink:href="#SimSun-30" x="50"/>
      </g>
     </g>
    </g>
    <g id="xtick_4">
     <g id="line2d_4">
      <g>
       <use xlink:href="#ma379fc2e9d" x="175.885312" y="171.334219" style="stroke: #000000; stroke-width: 0.8"/>
      </g>
     </g>
     <g id="text_4">
      <!-- 15 -->
      <g transform="translate(170.885312 185.482656)scale(0.1 -0.1)">
       <use xlink:href="#SimSun-31"/>
       <use xlink:href="#SimSun-35" x="50"/>
      </g>
     </g>
    </g>
    <g id="text_5">
     <!-- time（s） -->
     <g transform="translate(97.585313 197.920156)scale(0.1 -0.1)">
      <defs>
       <path id="SimSun-74" d="M 1500 900 
Q 1500 550 1625 425 
Q 1750 300 2000 300 
Q 2250 300 2400 462 
Q 2550 625 2600 925 
L 2725 875 
Q 2675 525 2462 300 
Q 2250 75 1900 75 
Q 1525 75 1337 300 
Q 1150 525 1150 1000 
L 1150 2750 
L 400 2750 
L 400 2900 
L 600 2900 
Q 900 2900 1087 3087 
Q 1275 3275 1325 3675 
L 1350 3875 
L 1500 3875 
L 1500 2900 
L 2500 2900 
L 2500 2750 
L 1500 2750 
L 1500 900 
z
" transform="scale(0.015625)"/>
       <path id="SimSun-69" d="M 1425 2525 
Q 1425 2625 1375 2687 
Q 1325 2750 1200 2750 
L 675 2750 
L 675 2900 
L 925 2900 
Q 1150 2900 1350 2937 
Q 1550 2975 1725 3075 
L 1775 3075 
L 1775 450 
Q 1775 350 1837 300 
Q 1900 250 2000 250 
L 2525 250 
L 2525 100 
L 675 100 
L 675 250 
L 1200 250 
Q 1325 250 1375 300 
Q 1425 350 1425 450 
L 1425 2525 
z
M 1725 3025 
L 1725 3025 
z
M 1625 4425 
Q 1750 4425 1850 4337 
Q 1950 4250 1950 4125 
Q 1950 4000 1850 3900 
Q 1750 3800 1625 3800 
Q 1500 3800 1400 3900 
Q 1300 4000 1300 4125 
Q 1300 4250 1400 4337 
Q 1500 4425 1625 4425 
z
" transform="scale(0.015625)"/>
       <path id="SimSun-6d" d="M 175 2900 
Q 300 2900 425 2925 
Q 550 2950 625 3000 
L 675 3000 
L 675 2575 
Q 800 2775 950 2862 
Q 1100 2950 1275 2950 
Q 1500 2950 1625 2862 
Q 1750 2775 1775 2575 
Q 1900 2775 2062 2862 
Q 2225 2950 2400 2950 
Q 2700 2950 2812 2775 
Q 2925 2600 2925 2325 
L 2925 425 
Q 2925 325 2975 287 
Q 3025 250 3125 250 
L 3175 250 
L 3175 100 
L 2325 100 
L 2325 250 
L 2375 250 
Q 2475 250 2525 287 
Q 2575 325 2575 425 
L 2575 2300 
Q 2575 2575 2512 2662 
Q 2450 2750 2325 2750 
Q 2150 2750 2012 2625 
Q 1875 2500 1800 2275 
L 1800 425 
Q 1800 325 1850 287 
Q 1900 250 2000 250 
L 2050 250 
L 2050 100 
L 1200 100 
L 1200 250 
L 1250 250 
Q 1350 250 1400 287 
Q 1450 325 1450 425 
L 1450 2300 
Q 1450 2525 1400 2637 
Q 1350 2750 1200 2750 
Q 1025 2750 887 2625 
Q 750 2500 675 2250 
L 675 425 
Q 675 325 725 287 
Q 775 250 875 250 
L 925 250 
L 925 100 
L 75 100 
L 75 250 
L 125 250 
Q 225 250 275 287 
Q 325 325 325 425 
L 325 2600 
Q 325 2675 300 2712 
Q 275 2750 200 2750 
L 100 2750 
L 100 2900 
L 175 2900 
z
" transform="scale(0.015625)"/>
       <path id="SimSun-65" d="M 2400 1650 
Q 2425 2200 2212 2487 
Q 2000 2775 1650 2775 
Q 1275 2775 1037 2475 
Q 800 2175 800 1650 
L 2400 1650 
z
M 800 1500 
Q 800 825 1062 537 
Q 1325 250 1750 250 
Q 2075 250 2300 437 
Q 2525 625 2625 900 
L 2750 850 
Q 2675 575 2412 312 
Q 2150 50 1700 50 
Q 1125 50 762 425 
Q 400 800 400 1500 
Q 400 2125 762 2537 
Q 1125 2950 1650 2950 
Q 2125 2950 2475 2625 
Q 2825 2300 2825 1500 
L 800 1500 
z
" transform="scale(0.015625)"/>
       <path id="SimSun-ff08" d="M 5087 200 
Q 5475 -100 5425 -150 
Q 5375 -200 4950 87 
Q 4525 375 4137 850 
Q 3750 1325 3687 2100 
Q 3625 2875 4000 3487 
Q 4375 4100 4887 4462 
Q 5400 4825 5412 4762 
Q 5425 4700 5075 4425 
Q 4725 4125 4387 3600 
Q 4050 3075 4050 2250 
Q 4050 1425 4375 962 
Q 4700 500 5087 200 
z
" transform="scale(0.015625)"/>
       <path id="SimSun-73" d="M 625 2175 
Q 625 2550 912 2750 
Q 1200 2950 1600 2950 
Q 1825 2950 2025 2900 
Q 2225 2825 2300 2825 
Q 2375 2825 2425 2850 
Q 2475 2875 2550 2950 
L 2650 2125 
L 2500 2100 
Q 2400 2425 2162 2612 
Q 1925 2800 1625 2800 
Q 1300 2800 1112 2675 
Q 925 2550 925 2325 
Q 925 2125 1012 2012 
Q 1100 1900 1325 1850 
Q 1500 1775 1775 1700 
Q 2025 1600 2250 1500 
Q 2450 1400 2587 1237 
Q 2725 1075 2725 875 
Q 2725 500 2462 287 
Q 2200 75 1700 75 
Q 1375 75 1225 150 
Q 1050 200 950 200 
Q 875 200 787 162 
Q 700 125 600 75 
L 525 1000 
L 675 1025 
Q 750 625 1000 425 
Q 1250 225 1700 225 
Q 2050 225 2237 350 
Q 2425 475 2425 725 
Q 2425 900 2325 1012 
Q 2225 1125 2125 1175 
Q 1875 1275 1575 1400 
Q 1275 1500 1050 1600 
Q 825 1700 725 1850 
Q 625 2000 625 2175 
z
" transform="scale(0.015625)"/>
       <path id="SimSun-ff09" d="M 2337 875 
Q 1925 350 1437 62 
Q 950 -225 937 -162 
Q 925 -100 1300 175 
Q 1650 425 2037 1012 
Q 2425 1600 2375 2375 
Q 2325 3150 1987 3662 
Q 1650 4175 1300 4475 
Q 925 4775 937 4837 
Q 950 4900 1412 4587 
Q 1875 4275 2325 3662 
Q 2775 3050 2762 2225 
Q 2750 1400 2337 875 
z
" transform="scale(0.015625)"/>
      </defs>
      <use xlink:href="#SimSun-74"/>
      <use xlink:href="#SimSun-69" x="50"/>
      <use xlink:href="#SimSun-6d" x="100"/>
      <use xlink:href="#SimSun-65" x="150"/>
      <use xlink:href="#SimSun-ff08" x="200"/>
      <use xlink:href="#SimSun-73" x="300"/>
      <use xlink:href="#SimSun-ff09" x="350"/>
     </g>
    </g>
   </g>
   <g id="matplotlib.axis_2">
    <g id="ytick_1">
     <g id="line2d_5">
      <defs>
       <path id="m377d102a83" d="M 0 0 
L -3.5 0 
" style="stroke: #000000; stroke-width: 0.8"/>
      </defs>
      <g>
       <use xlink:href="#m377d102a83" x="36.385312" y="171.334219" style="stroke: #000000; stroke-width: 0.8"/>
      </g>
     </g>
     <g id="text_6">
      <!-- 0 -->
      <g transform="translate(24.385312 174.908437)scale(0.1 -0.1)">
       <use xlink:href="#SimSun-30"/>
      </g>
     </g>
    </g>
    <g id="ytick_2">
     <g id="line2d_6">
      <g>
       <use xlink:href="#m377d102a83" x="36.385312" y="147.574219" style="stroke: #000000; stroke-width: 0.8"/>
      </g>
     </g>
     <g id="text_7">
      <!-- 100 -->
      <g transform="translate(14.385312 151.148438)scale(0.1 -0.1)">
       <use xlink:href="#SimSun-31"/>
       <use xlink:href="#SimSun-30" x="50"/>
       <use xlink:href="#SimSun-30" x="100"/>
      </g>
     </g>
    </g>
    <g id="ytick_3">
     <g id="line2d_7">
      <g>
       <use xlink:href="#m377d102a83" x="36.385312" y="123.814219" style="stroke: #000000; stroke-width: 0.8"/>
      </g>
     </g>
     <g id="text_8">
      <!-- 200 -->
      <g transform="translate(14.385312 127.388437)scale(0.1 -0.1)">
       <defs>
        <path id="SimSun-32" d="M 2325 3325 
Q 2325 3775 2125 4012 
Q 1925 4250 1525 4250 
Q 1225 4250 1012 4087 
Q 800 3925 800 3675 
Q 800 3525 900 3425 
Q 975 3325 975 3225 
Q 975 3100 912 3037 
Q 850 2975 725 2975 
Q 575 2975 487 3062 
Q 400 3150 400 3350 
Q 400 3875 775 4150 
Q 1150 4425 1575 4425 
Q 2175 4425 2462 4125 
Q 2750 3825 2750 3375 
Q 2750 3075 2612 2775 
Q 2475 2475 2175 2200 
Q 1450 1500 1062 1062 
Q 675 625 600 475 
L 2075 475 
Q 2300 475 2450 650 
Q 2600 825 2650 1175 
L 2800 1175 
L 2650 100 
L 325 100 
L 325 425 
Q 450 650 737 1000 
Q 1025 1350 1500 1825 
Q 1925 2250 2125 2625 
Q 2325 3000 2325 3325 
z
" transform="scale(0.015625)"/>
       </defs>
       <use xlink:href="#SimSun-32"/>
       <use xlink:href="#SimSun-30" x="50"/>
       <use xlink:href="#SimSun-30" x="100"/>
      </g>
     </g>
    </g>
    <g id="ytick_4">
     <g id="line2d_8">
      <g>
       <use xlink:href="#m377d102a83" x="36.385312" y="100.054219" style="stroke: #000000; stroke-width: 0.8"/>
      </g>
     </g>
     <g id="text_9">
      <!-- 300 -->
      <g transform="translate(14.385312 103.628437)scale(0.1 -0.1)">
       <defs>
        <path id="SimSun-33" d="M 2800 1250 
Q 2800 775 2450 412 
Q 2100 50 1475 50 
Q 1025 50 700 300 
Q 375 550 375 875 
Q 375 1025 475 1137 
Q 575 1250 675 1250 
Q 825 1250 887 1137 
Q 950 1025 950 950 
Q 950 825 900 750 
Q 850 650 850 575 
Q 850 425 1037 325 
Q 1225 225 1450 225 
Q 1900 225 2125 487 
Q 2350 750 2350 1300 
Q 2350 1750 2112 2025 
Q 1875 2300 1225 2300 
L 1225 2475 
Q 1725 2475 1962 2712 
Q 2200 2950 2200 3375 
Q 2200 3725 2012 3987 
Q 1825 4250 1425 4250 
Q 1250 4250 1050 4162 
Q 850 4075 850 3875 
Q 850 3675 900 3625 
Q 950 3575 950 3500 
Q 950 3375 900 3300 
Q 850 3225 725 3225 
Q 625 3225 537 3300 
Q 450 3375 450 3575 
Q 450 3950 775 4187 
Q 1100 4425 1525 4425 
Q 2025 4425 2325 4112 
Q 2625 3800 2625 3450 
Q 2625 3075 2437 2812 
Q 2250 2550 1850 2425 
Q 2400 2225 2600 1900 
Q 2800 1575 2800 1250 
z
" transform="scale(0.015625)"/>
       </defs>
       <use xlink:href="#SimSun-33"/>
       <use xlink:href="#SimSun-30" x="50"/>
       <use xlink:href="#SimSun-30" x="100"/>
      </g>
     </g>
    </g>
    <g id="ytick_5">
     <g id="line2d_9">
      <g>
       <use xlink:href="#m377d102a83" x="36.385312" y="76.294219" style="stroke: #000000; stroke-width: 0.8"/>
      </g>
     </g>
     <g id="text_10">
      <!-- 400 -->
      <g transform="translate(14.385312 79.868437)scale(0.1 -0.1)">
       <defs>
        <path id="SimSun-34" d="M 2300 575 
Q 2300 400 2400 325 
Q 2500 250 2675 250 
L 2900 250 
L 2900 100 
L 1250 100 
L 1250 250 
L 1525 250 
Q 1725 250 1812 325 
Q 1900 400 1900 575 
L 1900 1400 
L 225 1400 
L 225 1525 
L 2050 4425 
L 2300 4425 
L 2300 1550 
L 2975 1550 
L 2975 1400 
L 2300 1400 
L 2300 575 
z
M 1875 3800 
L 450 1550 
L 1900 1550 
L 1900 3800 
L 1875 3800 
z
" transform="scale(0.015625)"/>
       </defs>
       <use xlink:href="#SimSun-34"/>
       <use xlink:href="#SimSun-30" x="50"/>
       <use xlink:href="#SimSun-30" x="100"/>
      </g>
     </g>
    </g>
    <g id="ytick_6">
     <g id="line2d_10">
      <g>
       <use xlink:href="#m377d102a83" x="36.385312" y="52.534219" style="stroke: #000000; stroke-width: 0.8"/>
      </g>
     </g>
     <g id="text_11">
      <!-- 500 -->
      <g transform="translate(14.385312 56.108437)scale(0.1 -0.1)">
       <use xlink:href="#SimSun-35"/>
       <use xlink:href="#SimSun-30" x="50"/>
       <use xlink:href="#SimSun-30" x="100"/>
      </g>
     </g>
    </g>
    <g id="ytick_7">
     <g id="line2d_11">
      <g>
       <use xlink:href="#m377d102a83" x="36.385312" y="28.774219" style="stroke: #000000; stroke-width: 0.8"/>
      </g>
     </g>
     <g id="text_12">
      <!-- 600 -->
      <g transform="translate(14.385312 32.348437)scale(0.1 -0.1)">
       <defs>
        <path id="SimSun-36" d="M 775 1800 
Q 775 1050 1037 637 
Q 1300 225 1675 225 
Q 2050 225 2250 500 
Q 2450 775 2450 1525 
Q 2450 2025 2237 2300 
Q 2025 2575 1725 2575 
Q 1450 2575 1212 2412 
Q 975 2250 775 1800 
z
M 1750 2825 
Q 2350 2825 2612 2425 
Q 2875 2025 2875 1525 
Q 2875 775 2512 412 
Q 2150 50 1675 50 
Q 1000 50 650 562 
Q 300 1075 300 2050 
Q 300 3200 725 3812 
Q 1150 4425 1875 4425 
Q 2225 4425 2437 4225 
Q 2650 4025 2650 3875 
Q 2650 3725 2587 3650 
Q 2525 3575 2375 3575 
Q 2250 3575 2187 3637 
Q 2125 3700 2125 3825 
Q 2125 3875 2150 3925 
Q 2150 3975 2150 4025 
Q 2150 4125 2075 4187 
Q 2000 4250 1800 4250 
Q 1375 4250 1075 3862 
Q 775 3475 775 2175 
Q 925 2500 1187 2662 
Q 1450 2825 1750 2825 
z
" transform="scale(0.015625)"/>
       </defs>
       <use xlink:href="#SimSun-36"/>
       <use xlink:href="#SimSun-30" x="50"/>
       <use xlink:href="#SimSun-30" x="100"/>
      </g>
     </g>
    </g>
    <g id="ytick_8">
     <g id="line2d_12">
      <g>
       <use xlink:href="#m377d102a83" x="36.385312" y="5.014219" style="stroke: #000000; stroke-width: 0.8"/>
      </g>
     </g>
     <g id="text_13">
      <!-- 700 -->
      <g transform="translate(14.385312 8.588437)scale(0.1 -0.1)">
       <defs>
        <path id="SimSun-37" d="M 2825 4200 
Q 2300 3350 1987 2537 
Q 1675 1725 1675 1125 
Q 1675 1025 1700 850 
Q 1700 650 1700 400 
Q 1700 200 1637 125 
Q 1575 50 1425 50 
Q 1300 50 1212 137 
Q 1125 225 1125 450 
Q 1125 925 1337 1625 
Q 1550 2325 2475 4000 
L 1225 4000 
Q 950 4000 787 3825 
Q 625 3650 550 3300 
L 400 3325 
L 575 4375 
L 2825 4375 
L 2825 4200 
z
" transform="scale(0.015625)"/>
       </defs>
       <use xlink:href="#SimSun-37"/>
       <use xlink:href="#SimSun-30" x="50"/>
       <use xlink:href="#SimSun-30" x="100"/>
      </g>
     </g>
    </g>
    <g id="text_14">
     <!-- power（W） -->
     <g transform="translate(9.09625 113.174219)rotate(-90)scale(0.1 -0.1)">
      <defs>
       <path id="SimSun-70" d="M 1150 -675 
L 1325 -675 
L 1325 -825 
L 175 -825 
L 175 -675 
L 325 -675 
Q 450 -675 500 -625 
Q 550 -575 550 -450 
L 550 2500 
Q 550 2600 500 2662 
Q 450 2725 325 2725 
L 175 2725 
L 175 2875 
L 400 2875 
Q 525 2875 637 2900 
Q 750 2925 850 3000 
L 900 3000 
L 900 2425 
Q 1075 2675 1287 2800 
Q 1500 2925 1750 2925 
Q 2250 2925 2575 2587 
Q 2900 2250 2900 1525 
Q 2900 825 2550 450 
Q 2200 75 1725 75 
Q 1450 75 1262 162 
Q 1075 250 900 425 
L 900 -450 
Q 900 -575 975 -625 
Q 1050 -675 1150 -675 
z
M 900 750 
Q 1025 500 1212 375 
Q 1400 250 1650 250 
Q 2000 250 2250 562 
Q 2500 875 2500 1525 
Q 2500 2125 2312 2425 
Q 2125 2725 1750 2725 
Q 1525 2725 1300 2587 
Q 1075 2450 900 2150 
L 900 750 
z
" transform="scale(0.015625)"/>
       <path id="SimSun-6f" d="M 2900 1500 
Q 2900 875 2525 462 
Q 2150 50 1600 50 
Q 1025 50 662 475 
Q 300 900 300 1500 
Q 300 2050 662 2500 
Q 1025 2950 1600 2950 
Q 2200 2950 2550 2500 
Q 2900 2050 2900 1500 
z
M 700 1475 
Q 700 825 962 512 
Q 1225 200 1600 200 
Q 2025 200 2262 537 
Q 2500 875 2500 1475 
Q 2500 2125 2237 2462 
Q 1975 2800 1600 2800 
Q 1250 2800 975 2462 
Q 700 2125 700 1475 
z
" transform="scale(0.015625)"/>
       <path id="SimSun-77" d="M 2325 2900 
L 3175 2900 
L 3175 2750 
L 3075 2750 
Q 2975 2750 2900 2675 
Q 2825 2600 2775 2425 
L 2175 75 
L 2025 75 
L 1575 1975 
L 1100 75 
L 950 75 
L 375 2375 
Q 350 2550 275 2650 
Q 200 2750 125 2750 
L 25 2750 
L 25 2900 
L 925 2900 
L 925 2750 
L 825 2750 
Q 725 2750 700 2662 
Q 675 2575 700 2425 
L 1075 800 
L 1125 800 
L 1500 2300 
Q 1475 2525 1400 2637 
Q 1325 2750 1225 2750 
L 1150 2750 
L 1150 2900 
L 2000 2900 
L 2000 2750 
L 1925 2750 
Q 1825 2750 1800 2662 
Q 1775 2575 1800 2425 
L 2175 800 
L 2200 800 
L 2625 2550 
Q 2650 2650 2600 2700 
Q 2550 2750 2450 2750 
L 2325 2750 
L 2325 2900 
z
M 1725 2750 
L 1725 2750 
z
M 625 2750 
L 625 2750 
z
M 275 2750 
L 275 2750 
z
M 2875 2750 
L 2875 2750 
z
M 2675 2750 
L 2675 2750 
z
" transform="scale(0.015625)"/>
       <path id="SimSun-72" d="M 1275 2125 
Q 1525 2525 1812 2737 
Q 2100 2950 2400 2950 
Q 2650 2950 2787 2837 
Q 2925 2725 2925 2575 
Q 2925 2450 2862 2375 
Q 2800 2300 2675 2300 
Q 2550 2300 2487 2375 
Q 2425 2450 2450 2575 
Q 2450 2650 2425 2700 
Q 2400 2750 2275 2750 
Q 2075 2750 1787 2500 
Q 1500 2250 1275 1800 
L 1275 450 
Q 1275 350 1337 300 
Q 1400 250 1500 250 
L 2050 250 
L 2050 100 
L 200 100 
L 200 250 
L 700 250 
Q 825 250 875 300 
Q 925 350 925 450 
L 925 2525 
Q 925 2625 875 2687 
Q 825 2750 700 2750 
L 225 2750 
L 225 2900 
L 425 2900 
Q 600 2900 837 2937 
Q 1075 2975 1200 3025 
L 1275 3025 
L 1275 2125 
z
" transform="scale(0.015625)"/>
       <path id="SimSun-57" d="M 3150 4375 
L 3150 4225 
L 3050 4225 
Q 3000 4225 2937 4175 
Q 2875 4125 2850 4000 
L 2175 100 
L 2025 100 
L 1625 2750 
L 1575 2750 
L 1050 100 
L 900 100 
L 300 4025 
Q 300 4125 262 4175 
Q 225 4225 150 4225 
L 50 4225 
L 50 4375 
L 925 4375 
L 925 4225 
L 850 4225 
Q 750 4225 700 4175 
Q 650 4125 650 4025 
L 1050 1275 
L 1100 1275 
L 1525 3350 
L 1450 4025 
Q 1450 4125 1387 4175 
Q 1325 4225 1275 4225 
L 1200 4225 
L 1200 4375 
L 2050 4375 
L 2050 4225 
L 1975 4225 
Q 1875 4225 1837 4175 
Q 1800 4125 1800 4025 
L 2175 1350 
L 2225 1350 
L 2675 3975 
Q 2700 4100 2637 4162 
Q 2575 4225 2475 4225 
L 2400 4225 
L 2400 4375 
L 3150 4375 
z
M 1775 4225 
L 1775 4225 
z
M 1425 4225 
L 1425 4225 
z
M 2900 4225 
L 2900 4225 
z
M 2725 4225 
L 2725 4225 
z
M 625 4225 
L 625 4225 
z
M 275 4225 
L 275 4225 
z
" transform="scale(0.015625)"/>
      </defs>
      <use xlink:href="#SimSun-70"/>
      <use xlink:href="#SimSun-6f" x="50"/>
      <use xlink:href="#SimSun-77" x="100"/>
      <use xlink:href="#SimSun-65" x="150"/>
      <use xlink:href="#SimSun-72" x="200"/>
      <use xlink:href="#SimSun-ff08" x="250"/>
      <use xlink:href="#SimSun-57" x="350"/>
      <use xlink:href="#SimSun-ff09" x="400"/>
     </g>
    </g>
   </g>
   <g id="line2d_13">
    <path d="M 36.385312 171.144139 
L 39.175312 171.144139 
L 40.105312 168.649339 
L 41.035312 127.544539 
L 41.965312 35.331979 
L 42.895312 11.073019 
L 43.825312 9.956299 
L 44.755312 24.806299 
L 45.685312 20.672059 
L 46.615313 35.617099 
L 47.545312 21.456139 
L 48.475313 35.070619 
L 49.405312 29.011819 
L 50.335313 29.011819 
L 52.195312 35.308219 
L 53.125312 32.076859 
L 54.055312 44.123179 
L 54.985312 50.704699 
L 55.915312 33.431179 
L 56.845312 32.670859 
L 57.775312 32.670859 
L 58.705312 46.879339 
L 59.635312 39.489979 
L 60.565312 41.937259 
L 61.495312 40.630459 
L 62.425312 48.827659 
L 63.355312 46.475419 
L 64.285313 39.204859 
L 65.215312 49.231579 
L 66.145312 49.231579 
L 67.075312 51.013579 
L 68.005312 53.532139 
L 68.935312 52.819339 
L 69.865312 49.160299 
L 70.795312 55.385419 
L 71.725313 54.435019 
L 72.655312 54.435019 
L 73.585312 45.976459 
L 74.515312 47.140699 
L 75.445312 57.761419 
L 76.375312 58.284139 
L 77.305312 64.960699 
L 78.235312 62.727259 
L 79.165312 53.841019 
L 80.095312 53.841019 
L 81.025312 51.179899 
L 81.955312 54.149899 
L 82.885312 55.718059 
L 83.815312 56.906059 
L 84.745312 54.007339 
L 85.675312 56.620939 
L 87.535312 56.573419 
L 88.465312 58.806859 
L 89.395312 53.841019 
L 90.325312 61.467979 
L 91.255313 50.134459 
L 92.185312 56.834779 
L 93.115312 60.279979 
L 94.045312 64.889419 
L 94.975312 59.187019 
L 95.905312 58.996939 
L 96.835312 62.727259 
L 97.765312 62.727259 
L 98.695312 70.140379 
L 99.625312 70.449259 
L 100.555312 72.967819 
L 101.485312 73.371739 
L 102.415312 75.296299 
L 103.345312 72.872779 
L 104.275312 72.872779 
L 105.205312 70.449259 
L 106.135312 79.739419 
L 107.995312 95.706139 
L 109.855312 106.588219 
L 110.785312 109.748299 
L 111.715312 106.873339 
L 112.645312 99.792859 
L 113.575312 99.792859 
L 114.505312 91.286779 
L 115.435312 85.679419 
L 116.365312 79.145419 
L 117.295312 70.615579 
L 118.225313 57.713899 
L 119.155312 51.203659 
L 121.015312 36.519979 
L 121.945312 36.519979 
L 122.875312 35.783419 
L 123.805312 51.916459 
L 124.735312 58.236619 
L 126.595312 85.513099 
L 127.525312 88.625659 
L 128.455312 85.536859 
L 129.385312 104.426059 
L 130.315313 103.689499 
L 131.245312 102.691579 
L 132.175312 112.955899 
L 133.105312 112.338139 
L 134.035312 114.048859 
L 134.965312 94.066699 
L 135.895312 80.547259 
L 136.825312 73.466779 
L 137.755313 80.119579 
L 138.685312 69.736459 
L 139.615312 57.119899 
L 140.545312 71.969899 
L 141.475312 71.304619 
L 142.405312 71.304619 
L 143.335312 60.422539 
L 144.265312 73.371739 
L 145.195312 61.705579 
L 146.125313 69.688939 
L 147.055312 65.578459 
L 147.985312 65.459659 
L 148.915312 60.232459 
L 149.845312 62.893579 
L 150.775312 62.893579 
L 151.705312 46.071499 
L 152.635312 56.549659 
L 153.565312 56.715979 
L 154.495312 55.219099 
L 156.355312 65.127019 
L 157.285312 63.701419 
L 158.215312 63.701419 
L 159.145312 59.068219 
L 160.075312 59.804779 
L 161.005313 66.718939 
L 161.935312 66.410059 
L 162.865312 64.390459 
L 163.795312 58.260379 
L 165.655312 58.355419 
L 166.585312 68.287099 
L 167.515312 66.124939 
L 168.445312 62.679739 
L 169.375312 62.679739 
L 170.305312 60.969019 
L 171.235312 63.653899 
L 172.165312 56.739739 
L 173.095312 67.217899 
L 174.025312 66.148699 
L 174.955312 64.675579 
L 175.885312 61.491739 
L 176.815312 61.491739 
L 177.745312 57.309979 
L 178.675312 62.964859 
L 179.605312 67.811899 
L 180.535312 66.671419 
L 181.465312 67.693099 
L 182.395312 64.723099 
L 183.325312 62.679739 
L 184.255312 62.679739 
L 185.185312 64.224139 
L 186.115312 64.057819 
L 187.045312 71.209579 
L 187.975313 70.496779 
L 188.905312 68.263339 
L 189.835312 61.586779 
L 191.695312 69.617659 
L 192.625312 69.617659 
L 193.555312 70.045339 
L 194.485312 77.268379 
L 195.415312 66.790219 
L 196.345312 66.457579 
L 197.275312 171.334219 
L 198.205312 171.096619 
L 201.925312 171.096619 
L 201.925312 171.096619 
" clip-path="url(#pc6ed6e73da)" style="fill: none; stroke: #000000; stroke-linecap: square"/>
    <defs>
     <path id="mef3d6a19da" d="M 0 1.414214 
L 0.848528 0 
L 0 -1.414214 
L -0.848528 0 
z
" style="stroke: #000000; stroke-linejoin: miter"/>
    </defs>
    <g clip-path="url(#pc6ed6e73da)">
     <use xlink:href="#mef3d6a19da" x="36.385312" y="171.144139" style="stroke: #000000; stroke-linejoin: miter"/>
     <use xlink:href="#mef3d6a19da" x="37.315312" y="171.144139" style="stroke: #000000; stroke-linejoin: miter"/>
     <use xlink:href="#mef3d6a19da" x="38.245312" y="171.144139" style="stroke: #000000; stroke-linejoin: miter"/>
     <use xlink:href="#mef3d6a19da" x="39.175312" y="171.144139" style="stroke: #000000; stroke-linejoin: miter"/>
     <use xlink:href="#mef3d6a19da" x="40.105312" y="168.649339" style="stroke: #000000; stroke-linejoin: miter"/>
     <use xlink:href="#mef3d6a19da" x="41.035312" y="127.544539" style="stroke: #000000; stroke-linejoin: miter"/>
     <use xlink:href="#mef3d6a19da" x="41.965312" y="35.331979" style="stroke: #000000; stroke-linejoin: miter"/>
     <use xlink:href="#mef3d6a19da" x="42.895312" y="11.073019" style="stroke: #000000; stroke-linejoin: miter"/>
     <use xlink:href="#mef3d6a19da" x="43.825312" y="9.956299" style="stroke: #000000; stroke-linejoin: miter"/>
     <use xlink:href="#mef3d6a19da" x="44.755312" y="24.806299" style="stroke: #000000; stroke-linejoin: miter"/>
     <use xlink:href="#mef3d6a19da" x="45.685312" y="20.672059" style="stroke: #000000; stroke-linejoin: miter"/>
     <use xlink:href="#mef3d6a19da" x="46.615313" y="35.617099" style="stroke: #000000; stroke-linejoin: miter"/>
     <use xlink:href="#mef3d6a19da" x="47.545312" y="21.456139" style="stroke: #000000; stroke-linejoin: miter"/>
     <use xlink:href="#mef3d6a19da" x="48.475313" y="35.070619" style="stroke: #000000; stroke-linejoin: miter"/>
     <use xlink:href="#mef3d6a19da" x="49.405312" y="29.011819" style="stroke: #000000; stroke-linejoin: miter"/>
     <use xlink:href="#mef3d6a19da" x="50.335313" y="29.011819" style="stroke: #000000; stroke-linejoin: miter"/>
     <use xlink:href="#mef3d6a19da" x="51.265312" y="32.338219" style="stroke: #000000; stroke-linejoin: miter"/>
     <use xlink:href="#mef3d6a19da" x="52.195312" y="35.308219" style="stroke: #000000; stroke-linejoin: miter"/>
     <use xlink:href="#mef3d6a19da" x="53.125312" y="32.076859" style="stroke: #000000; stroke-linejoin: miter"/>
     <use xlink:href="#mef3d6a19da" x="54.055312" y="44.123179" style="stroke: #000000; stroke-linejoin: miter"/>
     <use xlink:href="#mef3d6a19da" x="54.985312" y="50.704699" style="stroke: #000000; stroke-linejoin: miter"/>
     <use xlink:href="#mef3d6a19da" x="55.915312" y="33.431179" style="stroke: #000000; stroke-linejoin: miter"/>
     <use xlink:href="#mef3d6a19da" x="56.845312" y="32.670859" style="stroke: #000000; stroke-linejoin: miter"/>
     <use xlink:href="#mef3d6a19da" x="57.775312" y="32.670859" style="stroke: #000000; stroke-linejoin: miter"/>
     <use xlink:href="#mef3d6a19da" x="58.705312" y="46.879339" style="stroke: #000000; stroke-linejoin: miter"/>
     <use xlink:href="#mef3d6a19da" x="59.635312" y="39.489979" style="stroke: #000000; stroke-linejoin: miter"/>
     <use xlink:href="#mef3d6a19da" x="60.565312" y="41.937259" style="stroke: #000000; stroke-linejoin: miter"/>
     <use xlink:href="#mef3d6a19da" x="61.495312" y="40.630459" style="stroke: #000000; stroke-linejoin: miter"/>
     <use xlink:href="#mef3d6a19da" x="62.425312" y="48.827659" style="stroke: #000000; stroke-linejoin: miter"/>
     <use xlink:href="#mef3d6a19da" x="63.355312" y="46.475419" style="stroke: #000000; stroke-linejoin: miter"/>
     <use xlink:href="#mef3d6a19da" x="64.285313" y="39.204859" style="stroke: #000000; stroke-linejoin: miter"/>
     <use xlink:href="#mef3d6a19da" x="65.215312" y="49.231579" style="stroke: #000000; stroke-linejoin: miter"/>
     <use xlink:href="#mef3d6a19da" x="66.145312" y="49.231579" style="stroke: #000000; stroke-linejoin: miter"/>
     <use xlink:href="#mef3d6a19da" x="67.075312" y="51.013579" style="stroke: #000000; stroke-linejoin: miter"/>
     <use xlink:href="#mef3d6a19da" x="68.005312" y="53.532139" style="stroke: #000000; stroke-linejoin: miter"/>
     <use xlink:href="#mef3d6a19da" x="68.935312" y="52.819339" style="stroke: #000000; stroke-linejoin: miter"/>
     <use xlink:href="#mef3d6a19da" x="69.865312" y="49.160299" style="stroke: #000000; stroke-linejoin: miter"/>
     <use xlink:href="#mef3d6a19da" x="70.795312" y="55.385419" style="stroke: #000000; stroke-linejoin: miter"/>
     <use xlink:href="#mef3d6a19da" x="71.725313" y="54.435019" style="stroke: #000000; stroke-linejoin: miter"/>
     <use xlink:href="#mef3d6a19da" x="72.655312" y="54.435019" style="stroke: #000000; stroke-linejoin: miter"/>
     <use xlink:href="#mef3d6a19da" x="73.585312" y="45.976459" style="stroke: #000000; stroke-linejoin: miter"/>
     <use xlink:href="#mef3d6a19da" x="74.515312" y="47.140699" style="stroke: #000000; stroke-linejoin: miter"/>
     <use xlink:href="#mef3d6a19da" x="75.445312" y="57.761419" style="stroke: #000000; stroke-linejoin: miter"/>
     <use xlink:href="#mef3d6a19da" x="76.375312" y="58.284139" style="stroke: #000000; stroke-linejoin: miter"/>
     <use xlink:href="#mef3d6a19da" x="77.305312" y="64.960699" style="stroke: #000000; stroke-linejoin: miter"/>
     <use xlink:href="#mef3d6a19da" x="78.235312" y="62.727259" style="stroke: #000000; stroke-linejoin: miter"/>
     <use xlink:href="#mef3d6a19da" x="79.165312" y="53.841019" style="stroke: #000000; stroke-linejoin: miter"/>
     <use xlink:href="#mef3d6a19da" x="80.095312" y="53.841019" style="stroke: #000000; stroke-linejoin: miter"/>
     <use xlink:href="#mef3d6a19da" x="81.025312" y="51.179899" style="stroke: #000000; stroke-linejoin: miter"/>
     <use xlink:href="#mef3d6a19da" x="81.955312" y="54.149899" style="stroke: #000000; stroke-linejoin: miter"/>
     <use xlink:href="#mef3d6a19da" x="82.885312" y="55.718059" style="stroke: #000000; stroke-linejoin: miter"/>
     <use xlink:href="#mef3d6a19da" x="83.815312" y="56.906059" style="stroke: #000000; stroke-linejoin: miter"/>
     <use xlink:href="#mef3d6a19da" x="84.745312" y="54.007339" style="stroke: #000000; stroke-linejoin: miter"/>
     <use xlink:href="#mef3d6a19da" x="85.675312" y="56.620939" style="stroke: #000000; stroke-linejoin: miter"/>
     <use xlink:href="#mef3d6a19da" x="86.605312" y="56.573419" style="stroke: #000000; stroke-linejoin: miter"/>
     <use xlink:href="#mef3d6a19da" x="87.535312" y="56.573419" style="stroke: #000000; stroke-linejoin: miter"/>
     <use xlink:href="#mef3d6a19da" x="88.465312" y="58.806859" style="stroke: #000000; stroke-linejoin: miter"/>
     <use xlink:href="#mef3d6a19da" x="89.395312" y="53.841019" style="stroke: #000000; stroke-linejoin: miter"/>
     <use xlink:href="#mef3d6a19da" x="90.325312" y="61.467979" style="stroke: #000000; stroke-linejoin: miter"/>
     <use xlink:href="#mef3d6a19da" x="91.255313" y="50.134459" style="stroke: #000000; stroke-linejoin: miter"/>
     <use xlink:href="#mef3d6a19da" x="92.185312" y="56.834779" style="stroke: #000000; stroke-linejoin: miter"/>
     <use xlink:href="#mef3d6a19da" x="93.115312" y="60.279979" style="stroke: #000000; stroke-linejoin: miter"/>
     <use xlink:href="#mef3d6a19da" x="94.045312" y="64.889419" style="stroke: #000000; stroke-linejoin: miter"/>
     <use xlink:href="#mef3d6a19da" x="94.975312" y="59.187019" style="stroke: #000000; stroke-linejoin: miter"/>
     <use xlink:href="#mef3d6a19da" x="95.905312" y="58.996939" style="stroke: #000000; stroke-linejoin: miter"/>
     <use xlink:href="#mef3d6a19da" x="96.835312" y="62.727259" style="stroke: #000000; stroke-linejoin: miter"/>
     <use xlink:href="#mef3d6a19da" x="97.765312" y="62.727259" style="stroke: #000000; stroke-linejoin: miter"/>
     <use xlink:href="#mef3d6a19da" x="98.695312" y="70.140379" style="stroke: #000000; stroke-linejoin: miter"/>
     <use xlink:href="#mef3d6a19da" x="99.625312" y="70.449259" style="stroke: #000000; stroke-linejoin: miter"/>
     <use xlink:href="#mef3d6a19da" x="100.555312" y="72.967819" style="stroke: #000000; stroke-linejoin: miter"/>
     <use xlink:href="#mef3d6a19da" x="101.485312" y="73.371739" style="stroke: #000000; stroke-linejoin: miter"/>
     <use xlink:href="#mef3d6a19da" x="102.415312" y="75.296299" style="stroke: #000000; stroke-linejoin: miter"/>
     <use xlink:href="#mef3d6a19da" x="103.345312" y="72.872779" style="stroke: #000000; stroke-linejoin: miter"/>
     <use xlink:href="#mef3d6a19da" x="104.275312" y="72.872779" style="stroke: #000000; stroke-linejoin: miter"/>
     <use xlink:href="#mef3d6a19da" x="105.205312" y="70.449259" style="stroke: #000000; stroke-linejoin: miter"/>
     <use xlink:href="#mef3d6a19da" x="106.135312" y="79.739419" style="stroke: #000000; stroke-linejoin: miter"/>
     <use xlink:href="#mef3d6a19da" x="107.065312" y="87.318859" style="stroke: #000000; stroke-linejoin: miter"/>
     <use xlink:href="#mef3d6a19da" x="107.995312" y="95.706139" style="stroke: #000000; stroke-linejoin: miter"/>
     <use xlink:href="#mef3d6a19da" x="108.925312" y="101.456059" style="stroke: #000000; stroke-linejoin: miter"/>
     <use xlink:href="#mef3d6a19da" x="109.855312" y="106.588219" style="stroke: #000000; stroke-linejoin: miter"/>
     <use xlink:href="#mef3d6a19da" x="110.785312" y="109.748299" style="stroke: #000000; stroke-linejoin: miter"/>
     <use xlink:href="#mef3d6a19da" x="111.715312" y="106.873339" style="stroke: #000000; stroke-linejoin: miter"/>
     <use xlink:href="#mef3d6a19da" x="112.645312" y="99.792859" style="stroke: #000000; stroke-linejoin: miter"/>
     <use xlink:href="#mef3d6a19da" x="113.575312" y="99.792859" style="stroke: #000000; stroke-linejoin: miter"/>
     <use xlink:href="#mef3d6a19da" x="114.505312" y="91.286779" style="stroke: #000000; stroke-linejoin: miter"/>
     <use xlink:href="#mef3d6a19da" x="115.435312" y="85.679419" style="stroke: #000000; stroke-linejoin: miter"/>
     <use xlink:href="#mef3d6a19da" x="116.365312" y="79.145419" style="stroke: #000000; stroke-linejoin: miter"/>
     <use xlink:href="#mef3d6a19da" x="117.295312" y="70.615579" style="stroke: #000000; stroke-linejoin: miter"/>
     <use xlink:href="#mef3d6a19da" x="118.225313" y="57.713899" style="stroke: #000000; stroke-linejoin: miter"/>
     <use xlink:href="#mef3d6a19da" x="119.155312" y="51.203659" style="stroke: #000000; stroke-linejoin: miter"/>
     <use xlink:href="#mef3d6a19da" x="120.085312" y="43.434139" style="stroke: #000000; stroke-linejoin: miter"/>
     <use xlink:href="#mef3d6a19da" x="121.015312" y="36.519979" style="stroke: #000000; stroke-linejoin: miter"/>
     <use xlink:href="#mef3d6a19da" x="121.945312" y="36.519979" style="stroke: #000000; stroke-linejoin: miter"/>
     <use xlink:href="#mef3d6a19da" x="122.875312" y="35.783419" style="stroke: #000000; stroke-linejoin: miter"/>
     <use xlink:href="#mef3d6a19da" x="123.805312" y="51.916459" style="stroke: #000000; stroke-linejoin: miter"/>
     <use xlink:href="#mef3d6a19da" x="124.735312" y="58.236619" style="stroke: #000000; stroke-linejoin: miter"/>
     <use xlink:href="#mef3d6a19da" x="125.665312" y="72.611419" style="stroke: #000000; stroke-linejoin: miter"/>
     <use xlink:href="#mef3d6a19da" x="126.595312" y="85.513099" style="stroke: #000000; stroke-linejoin: miter"/>
     <use xlink:href="#mef3d6a19da" x="127.525312" y="88.625659" style="stroke: #000000; stroke-linejoin: miter"/>
     <use xlink:href="#mef3d6a19da" x="128.455312" y="85.536859" style="stroke: #000000; stroke-linejoin: miter"/>
     <use xlink:href="#mef3d6a19da" x="129.385312" y="104.426059" style="stroke: #000000; stroke-linejoin: miter"/>
     <use xlink:href="#mef3d6a19da" x="130.315313" y="103.689499" style="stroke: #000000; stroke-linejoin: miter"/>
     <use xlink:href="#mef3d6a19da" x="131.245312" y="102.691579" style="stroke: #000000; stroke-linejoin: miter"/>
     <use xlink:href="#mef3d6a19da" x="132.175312" y="112.955899" style="stroke: #000000; stroke-linejoin: miter"/>
     <use xlink:href="#mef3d6a19da" x="133.105312" y="112.338139" style="stroke: #000000; stroke-linejoin: miter"/>
     <use xlink:href="#mef3d6a19da" x="134.035312" y="114.048859" style="stroke: #000000; stroke-linejoin: miter"/>
     <use xlink:href="#mef3d6a19da" x="134.965312" y="94.066699" style="stroke: #000000; stroke-linejoin: miter"/>
     <use xlink:href="#mef3d6a19da" x="135.895312" y="80.547259" style="stroke: #000000; stroke-linejoin: miter"/>
     <use xlink:href="#mef3d6a19da" x="136.825312" y="73.466779" style="stroke: #000000; stroke-linejoin: miter"/>
     <use xlink:href="#mef3d6a19da" x="137.755313" y="80.119579" style="stroke: #000000; stroke-linejoin: miter"/>
     <use xlink:href="#mef3d6a19da" x="138.685312" y="69.736459" style="stroke: #000000; stroke-linejoin: miter"/>
     <use xlink:href="#mef3d6a19da" x="139.615312" y="57.119899" style="stroke: #000000; stroke-linejoin: miter"/>
     <use xlink:href="#mef3d6a19da" x="140.545312" y="71.969899" style="stroke: #000000; stroke-linejoin: miter"/>
     <use xlink:href="#mef3d6a19da" x="141.475312" y="71.304619" style="stroke: #000000; stroke-linejoin: miter"/>
     <use xlink:href="#mef3d6a19da" x="142.405312" y="71.304619" style="stroke: #000000; stroke-linejoin: miter"/>
     <use xlink:href="#mef3d6a19da" x="143.335312" y="60.422539" style="stroke: #000000; stroke-linejoin: miter"/>
     <use xlink:href="#mef3d6a19da" x="144.265312" y="73.371739" style="stroke: #000000; stroke-linejoin: miter"/>
     <use xlink:href="#mef3d6a19da" x="145.195312" y="61.705579" style="stroke: #000000; stroke-linejoin: miter"/>
     <use xlink:href="#mef3d6a19da" x="146.125313" y="69.688939" style="stroke: #000000; stroke-linejoin: miter"/>
     <use xlink:href="#mef3d6a19da" x="147.055312" y="65.578459" style="stroke: #000000; stroke-linejoin: miter"/>
     <use xlink:href="#mef3d6a19da" x="147.985312" y="65.459659" style="stroke: #000000; stroke-linejoin: miter"/>
     <use xlink:href="#mef3d6a19da" x="148.915312" y="60.232459" style="stroke: #000000; stroke-linejoin: miter"/>
     <use xlink:href="#mef3d6a19da" x="149.845312" y="62.893579" style="stroke: #000000; stroke-linejoin: miter"/>
     <use xlink:href="#mef3d6a19da" x="150.775312" y="62.893579" style="stroke: #000000; stroke-linejoin: miter"/>
     <use xlink:href="#mef3d6a19da" x="151.705312" y="46.071499" style="stroke: #000000; stroke-linejoin: miter"/>
     <use xlink:href="#mef3d6a19da" x="152.635312" y="56.549659" style="stroke: #000000; stroke-linejoin: miter"/>
     <use xlink:href="#mef3d6a19da" x="153.565312" y="56.715979" style="stroke: #000000; stroke-linejoin: miter"/>
     <use xlink:href="#mef3d6a19da" x="154.495312" y="55.219099" style="stroke: #000000; stroke-linejoin: miter"/>
     <use xlink:href="#mef3d6a19da" x="155.425312" y="60.113659" style="stroke: #000000; stroke-linejoin: miter"/>
     <use xlink:href="#mef3d6a19da" x="156.355312" y="65.127019" style="stroke: #000000; stroke-linejoin: miter"/>
     <use xlink:href="#mef3d6a19da" x="157.285312" y="63.701419" style="stroke: #000000; stroke-linejoin: miter"/>
     <use xlink:href="#mef3d6a19da" x="158.215312" y="63.701419" style="stroke: #000000; stroke-linejoin: miter"/>
     <use xlink:href="#mef3d6a19da" x="159.145312" y="59.068219" style="stroke: #000000; stroke-linejoin: miter"/>
     <use xlink:href="#mef3d6a19da" x="160.075312" y="59.804779" style="stroke: #000000; stroke-linejoin: miter"/>
     <use xlink:href="#mef3d6a19da" x="161.005313" y="66.718939" style="stroke: #000000; stroke-linejoin: miter"/>
     <use xlink:href="#mef3d6a19da" x="161.935312" y="66.410059" style="stroke: #000000; stroke-linejoin: miter"/>
     <use xlink:href="#mef3d6a19da" x="162.865312" y="64.390459" style="stroke: #000000; stroke-linejoin: miter"/>
     <use xlink:href="#mef3d6a19da" x="163.795312" y="58.260379" style="stroke: #000000; stroke-linejoin: miter"/>
     <use xlink:href="#mef3d6a19da" x="164.725313" y="58.260379" style="stroke: #000000; stroke-linejoin: miter"/>
     <use xlink:href="#mef3d6a19da" x="165.655312" y="58.355419" style="stroke: #000000; stroke-linejoin: miter"/>
     <use xlink:href="#mef3d6a19da" x="166.585312" y="68.287099" style="stroke: #000000; stroke-linejoin: miter"/>
     <use xlink:href="#mef3d6a19da" x="167.515312" y="66.124939" style="stroke: #000000; stroke-linejoin: miter"/>
     <use xlink:href="#mef3d6a19da" x="168.445312" y="62.679739" style="stroke: #000000; stroke-linejoin: miter"/>
     <use xlink:href="#mef3d6a19da" x="169.375312" y="62.679739" style="stroke: #000000; stroke-linejoin: miter"/>
     <use xlink:href="#mef3d6a19da" x="170.305312" y="60.969019" style="stroke: #000000; stroke-linejoin: miter"/>
     <use xlink:href="#mef3d6a19da" x="171.235312" y="63.653899" style="stroke: #000000; stroke-linejoin: miter"/>
     <use xlink:href="#mef3d6a19da" x="172.165312" y="56.739739" style="stroke: #000000; stroke-linejoin: miter"/>
     <use xlink:href="#mef3d6a19da" x="173.095312" y="67.217899" style="stroke: #000000; stroke-linejoin: miter"/>
     <use xlink:href="#mef3d6a19da" x="174.025312" y="66.148699" style="stroke: #000000; stroke-linejoin: miter"/>
     <use xlink:href="#mef3d6a19da" x="174.955312" y="64.675579" style="stroke: #000000; stroke-linejoin: miter"/>
     <use xlink:href="#mef3d6a19da" x="175.885312" y="61.491739" style="stroke: #000000; stroke-linejoin: miter"/>
     <use xlink:href="#mef3d6a19da" x="176.815312" y="61.491739" style="stroke: #000000; stroke-linejoin: miter"/>
     <use xlink:href="#mef3d6a19da" x="177.745312" y="57.309979" style="stroke: #000000; stroke-linejoin: miter"/>
     <use xlink:href="#mef3d6a19da" x="178.675312" y="62.964859" style="stroke: #000000; stroke-linejoin: miter"/>
     <use xlink:href="#mef3d6a19da" x="179.605312" y="67.811899" style="stroke: #000000; stroke-linejoin: miter"/>
     <use xlink:href="#mef3d6a19da" x="180.535312" y="66.671419" style="stroke: #000000; stroke-linejoin: miter"/>
     <use xlink:href="#mef3d6a19da" x="181.465312" y="67.693099" style="stroke: #000000; stroke-linejoin: miter"/>
     <use xlink:href="#mef3d6a19da" x="182.395312" y="64.723099" style="stroke: #000000; stroke-linejoin: miter"/>
     <use xlink:href="#mef3d6a19da" x="183.325312" y="62.679739" style="stroke: #000000; stroke-linejoin: miter"/>
     <use xlink:href="#mef3d6a19da" x="184.255312" y="62.679739" style="stroke: #000000; stroke-linejoin: miter"/>
     <use xlink:href="#mef3d6a19da" x="185.185312" y="64.224139" style="stroke: #000000; stroke-linejoin: miter"/>
     <use xlink:href="#mef3d6a19da" x="186.115312" y="64.057819" style="stroke: #000000; stroke-linejoin: miter"/>
     <use xlink:href="#mef3d6a19da" x="187.045312" y="71.209579" style="stroke: #000000; stroke-linejoin: miter"/>
     <use xlink:href="#mef3d6a19da" x="187.975313" y="70.496779" style="stroke: #000000; stroke-linejoin: miter"/>
     <use xlink:href="#mef3d6a19da" x="188.905312" y="68.263339" style="stroke: #000000; stroke-linejoin: miter"/>
     <use xlink:href="#mef3d6a19da" x="189.835312" y="61.586779" style="stroke: #000000; stroke-linejoin: miter"/>
     <use xlink:href="#mef3d6a19da" x="190.765312" y="65.412139" style="stroke: #000000; stroke-linejoin: miter"/>
     <use xlink:href="#mef3d6a19da" x="191.695312" y="69.617659" style="stroke: #000000; stroke-linejoin: miter"/>
     <use xlink:href="#mef3d6a19da" x="192.625312" y="69.617659" style="stroke: #000000; stroke-linejoin: miter"/>
     <use xlink:href="#mef3d6a19da" x="193.555312" y="70.045339" style="stroke: #000000; stroke-linejoin: miter"/>
     <use xlink:href="#mef3d6a19da" x="194.485312" y="77.268379" style="stroke: #000000; stroke-linejoin: miter"/>
     <use xlink:href="#mef3d6a19da" x="195.415312" y="66.790219" style="stroke: #000000; stroke-linejoin: miter"/>
     <use xlink:href="#mef3d6a19da" x="196.345312" y="66.457579" style="stroke: #000000; stroke-linejoin: miter"/>
     <use xlink:href="#mef3d6a19da" x="197.275312" y="171.334219" style="stroke: #000000; stroke-linejoin: miter"/>
     <use xlink:href="#mef3d6a19da" x="198.205312" y="171.096619" style="stroke: #000000; stroke-linejoin: miter"/>
     <use xlink:href="#mef3d6a19da" x="199.135312" y="171.120379" style="stroke: #000000; stroke-linejoin: miter"/>
     <use xlink:href="#mef3d6a19da" x="200.065313" y="171.120379" style="stroke: #000000; stroke-linejoin: miter"/>
     <use xlink:href="#mef3d6a19da" x="200.995312" y="171.120379" style="stroke: #000000; stroke-linejoin: miter"/>
     <use xlink:href="#mef3d6a19da" x="201.925312" y="171.096619" style="stroke: #000000; stroke-linejoin: miter"/>
    </g>
   </g>
   <g id="patch_3">
    <path d="M 36.385312 171.334219 
L 36.385312 5.014219 
" style="fill: none; stroke: #000000; stroke-width: 0.8; stroke-linejoin: miter; stroke-linecap: square"/>
   </g>
   <g id="patch_4">
    <path d="M 36.385312 171.334219 
L 203.785312 171.334219 
" style="fill: none; stroke: #000000; stroke-width: 0.8; stroke-linejoin: miter; stroke-linecap: square"/>
   </g>
  </g>
 </g>
 <defs>
  <clipPath id="pc6ed6e73da">
   <rect x="36.385312" y="5.014219" width="167.4" height="166.32"/>
  </clipPath>
 </defs>
</svg>
